<?xml version="1.0" encoding="UTF-8"?>
<svg version="1.1" xmlns="http://www.w3.org/2000/svg" width="555" height="140" viewBox="0 0 555 140">
    <g transform="scale(0.5)"> <!-- scale down by 50% -->
        <path d="M0 0 C1.68222656 -0.05607422 1.68222656 -0.05607422 3.3984375 -0.11328125 C7.29758749 0.40125549 8.88214375 1.54470869 11.625 4.3125 C13.6620533 10.42365989 12.74996669 15.22165939 10.0078125 20.859375 C3.83692698 31.80659563 -4.60497719 40.79380199 -15.375 47.3125 C-16.695 46.6525 -18.015 45.9925 -19.375 45.3125 C-19.375 44.6525 -19.375 43.9925 -19.375 43.3125 C-20.035 42.9825 -20.695 42.6525 -21.375 42.3125 C-20.22417275 38.86001824 -19.6274573 38.62597275 -16.6875 36.75 C-11.2225841 32.78891887 -7.4717379 27.50066786 -5.75 20.92578125 C-5.36269613 18.54909981 -5.36269613 18.54909981 -5.375 15.3125 C-6.49742268 13.98543045 -6.49742268 13.98543045 -9.375 13.9375 C-16.3922707 14.05253722 -22.69755985 19.04268192 -27.73828125 23.56640625 C-32.30213022 28.43523796 -36.1148823 33.8659405 -36.625 40.625 C-36.341913 44.8005333 -35.63058732 46.79925188 -33.375 50.3125 C-30.94189284 51.86003853 -28.79027549 53.03019336 -26.1875 54.1875 C-25.48641113 54.52064209 -24.78532227 54.85378418 -24.06298828 55.19702148 C-21.84118072 56.25249144 -19.60964231 57.28451612 -17.375 58.3125 C1.48101832 67.02453664 1.48101832 67.02453664 5.625 75.3125 C6.40746094 75.30089844 7.18992187 75.28929688 7.99609375 75.27734375 C9.51396484 75.26380859 9.51396484 75.26380859 11.0625 75.25 C12.07183594 75.23839844 13.08117187 75.22679688 14.12109375 75.21484375 C16.625 75.3125 16.625 75.3125 17.625 76.3125 C17.66592937 78.64547433 17.66741723 80.97955225 17.625 83.3125 C13.995 83.3125 10.365 83.3125 6.625 83.3125 C6.58375 84.385 6.5425 85.4575 6.5 86.5625 C5.08186607 97.40930814 -1.83025044 105.88111062 -9.375 113.3125 C-10.07496094 114.01117188 -10.77492188 114.70984375 -11.49609375 115.4296875 C-27.13286879 130.1770313 -49.60735386 140.19245074 -71.19921875 139.6640625 C-77.02672359 139.01895126 -80.61764882 136.97973061 -84.8125 133 C-87.54375335 128.30224424 -87.84667825 124.19433039 -86.5 119 C-80.30632568 102.59513288 -60.39096296 93.10733398 -45.375 86.3125 C-35.36743367 82.24496088 -24.95300804 79.44305286 -14.375 77.3125 C-19.78163631 74.44441979 -25.19531493 71.94048623 -30.9375 69.8125 C-39.56641169 66.55630691 -46.62840383 63.68852548 -51.44921875 55.484375 C-53.51151995 50.64623379 -53.09491052 44.86491001 -51.6875 39.875 C-49.40950461 34.40781107 -46.1001385 29.87697351 -42.375 25.3125 C-41.75044922 24.46945313 -41.75044922 24.46945313 -41.11328125 23.609375 C-32.01794057 11.91926746 -14.99859103 0.32605633 0 0 Z M-66.375 110.3125 C-68.75863113 114.51984891 -70.11697428 117.43666905 -69.375 122.3125 C-66.84640516 125.4311003 -64.88618416 127.12683352 -60.86328125 127.62109375 C-46.21596327 128.21563433 -32.89680748 121.56935168 -21.875 112.18359375 C-14.40344625 105.11756841 -10.00370871 98.58443576 -9.41796875 88.18359375 C-9.40378906 87.56613281 -9.38960937 86.94867188 -9.375 86.3125 C-29.07148268 85.15388337 -53.41822838 95.52977408 -66.375 110.3125 Z " fill="currentColor" transform="translate(87.375,-0.3125)"/>
        <path d="M0 0 C0.90105469 0.00902344 1.80210937 0.01804688 2.73046875 0.02734375 C3.41753906 0.03894531 4.10460937 0.05054688 4.8125 0.0625 C11.38221233 13.93559812 12.83056696 29.72990883 13.12890625 44.91015625 C13.14968735 45.80745956 13.17046844 46.70476288 13.19187927 47.6292572 C13.25662226 50.46110288 13.31590518 53.29303141 13.375 56.125 C13.41825702 58.05925294 13.46187344 59.99349788 13.50585938 61.92773438 C13.61222503 66.63924067 13.71369819 71.35082926 13.8125 76.0625 C14.39837891 74.93247559 14.98425781 73.80245117 15.58789062 72.63818359 C23.64040988 57.20189982 23.64040988 57.20189982 28.3125 50.6875 C29.00267212 49.70583862 29.00267212 49.70583862 29.70678711 48.7043457 C33.80995076 42.93243467 38.17338669 37.41407748 42.8125 32.0625 C43.60269531 31.13824219 44.39289063 30.21398437 45.20703125 29.26171875 C53.73836806 19.54808644 64.17825963 9.97469942 75.8125 4.0625 C78.046875 4.203125 78.046875 4.203125 79.8125 5.0625 C81.625 7.4375 81.625 7.4375 82.8125 10.0625 C81.65959496 13.52121513 80.87801711 13.98825343 78 16.0625 C50.32181506 36.9749064 30.74626641 66.47569405 15.734375 97.3125 C15.25907349 98.28401001 15.25907349 98.28401001 14.77416992 99.27514648 C13.93440772 101.00278108 13.10921485 102.73747635 12.28515625 104.47265625 C10.8125 107.0625 10.8125 107.0625 7.8125 109.0625 C5.07259592 109.03106707 2.52832146 108.50771663 -0.1875 108.0625 C-0.1875 107.4025 -0.1875 106.7425 -0.1875 106.0625 C-1.1775 105.7325 -2.1675 105.4025 -3.1875 105.0625 C-4.54186627 101.81211427 -4.14810844 98.72696992 -3.84765625 95.27734375 C-3.75387695 94.12024902 -3.66009766 92.9631543 -3.56347656 91.77099609 C-3.4600293 90.52656738 -3.35658203 89.28213867 -3.25 88 C-1.21308399 60.94826656 -0.64883861 33.68108631 -8.69921875 7.5078125 C-9.21906897 4.90440259 -9.25888697 3.48807658 -8.1875 1.0625 C-5.17259443 0.05753148 -3.14568308 -0.04085303 0 0 Z " fill="currentColor" transform="translate(311.1875,-0.0625)"/>
        <path d="M0 0 C0.66 0.66 1.32 1.32 2 2 C1.625 5.125 1.625 5.125 1 8 C-0.16015625 8.27972656 -1.3203125 8.55945312 -2.515625 8.84765625 C-16.69557188 12.42116716 -31.073229 17.80496381 -39.6640625 30.44921875 C-43.02489404 36.57945058 -44.25076751 41.56546063 -42.3125 48.4375 C-41.06218302 50.15912775 -41.06218302 50.15912775 -38.875 50.9375 C-29.41080015 51.14324347 -22.11912046 44.12291822 -15.625 38.0625 C-10.61715605 32.9762724 -6.8877363 27.15020314 -3.06640625 21.16015625 C-1 18 -1 18 1 16 C3.31 17.32 5.62 18.64 8 20 C6.93332541 23.42090084 5.72287909 26.71491991 4.2734375 29.98828125 C3.9640625 30.69533203 3.6546875 31.40238281 3.3359375 32.13085938 C2.69834811 33.57839463 2.04997672 35.02123132 1.390625 36.45898438 C-0.94699186 41.87577302 -1.31417462 46.10631688 -1 52 C3.99911924 51.52389341 6.97832683 49.96837781 11 47 C14.875 48.75 14.875 48.75 16 51 C11.83199374 57.72259074 6.61773887 62.46075371 -1 65 C-5.13505341 65.39009938 -7.52991708 65.22173723 -11.3125 63.4375 C-14.66743922 60.39464815 -15.38445184 58.46272414 -16 54 C-15.125 50.5625 -15.125 50.5625 -14 48 C-17.50657119 49.9705339 -20.29744885 52.08797131 -23.1875 54.875 C-30.2986222 61.33208923 -38.26115538 65.36321702 -47.9765625 65.21875 C-53.05435691 64.66979925 -56.84729936 61.84814931 -60 58 C-61.82329963 48.22657769 -59.27068589 39.10843867 -54.01171875 30.89453125 C-41.05761136 12.88407106 -23.48722413 4.13135645 -2.07421875 0.06640625 C-1.04748047 0.03353516 -1.04748047 0.03353516 0 0 Z " fill="currentColor" transform="translate(226,42)"/>
        <path d="M0 0 C2.31 0.66 4.62 1.32 7 2 C8.27862123 4.94624943 7.9814428 6.04935696 6.82836914 9.11621094 C6.24279898 10.32821992 5.64423384 11.53400728 5.03515625 12.734375 C4.72299667 13.37240051 4.4108371 14.01042603 4.08921814 14.66778564 C3.09135279 16.70085435 2.07724562 18.72531229 1.0625 20.75 C0.38237661 22.12837046 -0.29667301 23.50727131 -0.97460938 24.88671875 C-2.63735038 28.26408934 -4.31470232 31.63383215 -6 35 C-5.34 34.67 -4.68 34.34 -4 34 C-1.85595831 33.90293287 0.29126751 33.87021464 2.4375 33.875 C3.59121094 33.87242188 4.74492187 33.86984375 5.93359375 33.8671875 C9 34 9 34 12 35 C12 37.97 12 40.94 12 44 C11.16597656 43.98839844 10.33195312 43.97679687 9.47265625 43.96484375 C5.98062257 43.93684348 2.49191593 43.96468849 -1 44 C-2.34964844 43.97099609 -2.34964844 43.97099609 -3.7265625 43.94140625 C-6.04886029 43.99965787 -7.83216432 44.16403722 -10 45 C-12.11774191 47.88248204 -12.91707643 49.66684562 -14 53 C-14.20608887 53.59925293 -14.41217773 54.19850586 -14.62451172 54.81591797 C-19.27676257 67.10097968 -19.27676257 67.10097968 -19.3125 79.875 C-17.73063371 82.43611685 -16.90081387 83.19421837 -14 84 C-8.77673467 83.76785487 -5.33835312 81.68977893 -1 79 C0.32 80.32 1.64 81.64 3 83 C1.63182521 88.64372103 -2.52606904 91.6874917 -7 95 C-12.59959065 98.21457982 -17.68135196 98.75073046 -24 98 C-27.85415194 96.73864118 -29.45205909 95.73058788 -31.875 92.5 C-35.97819184 79.73451427 -30.50031204 65.10655294 -25.734375 53.13671875 C-24.83748428 50.90371452 -24.83748428 50.90371452 -25 48 C-26.75029762 48.31082872 -28.50022694 48.62373179 -30.25 48.9375 C-31.22453125 49.11152344 -32.1990625 49.28554688 -33.203125 49.46484375 C-35.49721795 49.90379729 -37.74291971 50.40348592 -40 51 C-40.33 48.36 -40.66 45.72 -41 43 C-33.99016908 39.5765942 -25.84186166 37 -18 37 C-17.75636719 36.19820312 -17.51273438 35.39640625 -17.26171875 34.5703125 C-15.715036 30.19363127 -13.80652409 26.06307699 -11.8125 21.875 C-11.41683838 21.04057373 -11.02117676 20.20614746 -10.61352539 19.34643555 C-7.41142458 12.67909163 -3.90287512 6.28726828 0 0 Z " fill="currentColor" transform="translate(151,8)"/>
        <path d="M0 0 C0.125 2.625 0.125 2.625 0 5 C-0.89460938 5.14695312 -1.78921875 5.29390625 -2.7109375 5.4453125 C-12.15847718 7.19784118 -20.82317643 9.53311964 -27 17.375 C-30.54011404 23.05419355 -31.60196431 29.3783926 -31 36 C-29.5864764 40.03863885 -28.34897047 43.27994417 -25 46 C-20.71999931 47.2880764 -16.94824849 47.2862637 -12.6875 46 C-8.28176297 42.72131198 -6.05431254 38.40209663 -5 33 C-4.40576436 25.74346863 -5.212253 19.72046151 -8 13 C-4.65454988 11.22589766 -1.78880439 10.41182656 2 10 C4 11 4 11 5.0625 13.1875 C7.93494385 21.80483155 8.20654331 32.36105598 4.875 40.875 C-0.73451541 50.22419235 -7.49569542 58.47169323 -18.3125 61.6875 C-25.23024362 62.49188879 -31.87397348 62.76508324 -38 59 C-43.0748559 54.37667866 -45.70507134 50.79539339 -46.23828125 43.93359375 C-46.52373145 30.48738703 -42.88966291 21.13329451 -34 11 C-25.3752447 2.47536624 -16.16768251 -1.05395077 -4.21484375 -2.1171875 C-2 -2 -2 -2 0 0 Z " fill="currentColor" transform="translate(400,46)"/>
        <path d="M0 0 C2.94643087 5.89286174 5.31422815 11.64593689 7 18 C10.84280572 18 11.85795358 16.8276916 14.875 14.5 C19.1282652 11.33833079 23.41283804 8.29369314 27.875 5.4375 C28.92429687 4.75558594 29.97359375 4.07367188 31.0546875 3.37109375 C34.32732478 1.84762467 35.63747567 1.86468274 39 3 C39.495 4.98 39.495 4.98 40 7 C33.04317916 12.94301277 25.65817871 17.999785 17.98291016 22.96191406 C16.84474854 23.70393066 16.84474854 23.70393066 15.68359375 24.4609375 C14.99837646 24.90228027 14.31315918 25.34362305 13.60717773 25.79833984 C11.85109965 26.92401682 11.85109965 26.92401682 11 29 C12.04075695 31.3797425 13.13642109 33.59990981 14.375 35.875 C14.73279541 36.54176758 15.09059082 37.20853516 15.45922852 37.89550781 C18.57196227 43.53889209 22.20543594 48.57526433 26.21484375 53.609375 C28 56 28 56 29 59 C29.66 59 30.32 59 31 59 C30.8125 60.8125 30.8125 60.8125 30 63 C27.25968607 65.20747511 25.85638861 66.07966406 22.3125 65.75 C20 65 20 65 18 64 C18 63.34 18 62.68 18 62 C17.34 62 16.68 62 16 62 C9.18066838 55.05260582 4.59542258 46.48197678 0 38 C-4.42748679 39.64020697 -7.09758107 43.02977375 -10.1875 46.4375 C-11.04154419 47.36780029 -11.04154419 47.36780029 -11.9128418 48.31689453 C-16.82286723 53.7083221 -21.47986585 59.27683273 -26 65 C-30.875 62.25 -30.875 62.25 -32 60 C-27.6725787 52.97430423 -22.60283038 47.03452387 -17 41 C-15.35143777 39.16912014 -13.70552235 37.33585295 -12.0625 35.5 C-10.07656523 33.28640075 -8.10275392 31.10275392 -6 29 C-6.43852846 25.08750386 -7.78438016 21.41927414 -9 17.6875 C-10.55281505 12.73649548 -11.59493804 8.16454 -12 3 C-8.04 2.01 -4.08 1.02 0 0 Z " fill="currentColor" transform="translate(441,43)"/>
        <path d="M0 0 C3.98736682 5.98105023 5.6550718 12.02219604 7 19 C13.57104698 15.61653407 19.67069293 11.6343224 25.76977539 7.47900391 C33.84525927 2 33.84525927 2 38 2 C40 5 40 5 40 8 C38.41455078 9.42285156 38.41455078 9.42285156 36.1953125 10.890625 C35.38811768 11.43243408 34.58092285 11.97424316 33.74926758 12.5324707 C32.88325928 13.09925537 32.01725098 13.66604004 31.125 14.25 C29.38127991 15.41501964 27.63778837 16.58038146 25.89453125 17.74609375 C24.62923584 18.58503174 24.62923584 18.58503174 23.33837891 19.44091797 C20.46534471 21.35647408 17.6349676 23.32329346 14.8125 25.3125 C14.05582031 25.84488281 13.29914062 26.37726563 12.51953125 26.92578125 C12.01808594 27.28027344 11.51664063 27.63476562 11 28 C15.83798611 38.54104259 21.4333654 49.53329245 29.796875 57.76953125 C31 59 31 59 31 61 C29.55148165 63.89703671 27.94304416 64.72914002 25 66 C19.83866367 65.5202604 17.65273943 63.28178305 14.19140625 59.65625 C8.69463153 52.99349277 4.41699065 45.39880769 0 38 C-8.26357137 44.88630948 -15.36032284 52.21718903 -22.01953125 60.6796875 C-24 63 -24 63 -27 65 C-28.65 63.68 -30.3 62.36 -32 61 C-29.31451818 56.01896581 -26.39281121 51.76629262 -22.6875 47.5 C-22.204021 46.93539062 -21.72054199 46.37078125 -21.22241211 45.7890625 C-18.60012291 42.7536939 -15.91882259 39.81922749 -13.0625 37 C-12.52882813 36.47148438 -11.99515625 35.94296875 -11.4453125 35.3984375 C-10.12664172 34.12253442 -8.78326391 32.87229338 -7.4375 31.625 C-5.61985488 28.30582195 -6.15198806 26.37362465 -7.14453125 22.8125 C-7.42683594 21.884375 -7.70914062 20.95625 -8 20 C-8.54812145 18.05466713 -9.09565593 16.10912974 -9.62890625 14.15966797 C-9.99744798 12.81726116 -10.37615917 11.47759949 -10.765625 10.14111328 C-11.68412867 6.86086454 -12.10306174 5.30918521 -11 2 C-9.39125 1.7834375 -9.39125 1.7834375 -7.75 1.5625 C-5.08337051 1.16250558 -2.58600271 0.72408076 0 0 Z " fill="currentColor" transform="translate(515,43)"/>
        <path d="M0 0 C-0.09087891 1.07483643 -0.09087891 1.07483643 -0.18359375 2.17138672 C-0.45658876 5.4058526 -0.72831032 8.64042422 -1 11.875 C-1.09539062 13.00292969 -1.19078125 14.13085938 -1.2890625 15.29296875 C-1.37929688 16.36933594 -1.46953125 17.44570313 -1.5625 18.5546875 C-1.64628906 19.54968262 -1.73007812 20.54467773 -1.81640625 21.56982422 C-2.02511095 23.92620266 -2.02511095 23.92620266 -2 26 C-1.25556641 24.93072266 -1.25556641 24.93072266 -0.49609375 23.83984375 C10.21158559 8.74343815 10.21158559 8.74343815 17 6 C21.27457023 5.35279394 24.82309818 5.18522182 28.4375 7.6875 C31.19846934 11.77373462 32.34101117 14.31549566 31.5 19.25 C29.72236912 26.15274847 25.8700057 31.95960647 20 36 C17.984375 34.85546875 17.984375 34.85546875 16 33 C15.828125 30.30078125 15.828125 30.30078125 16.25 27.3125 C16.37890625 26.31863281 16.5078125 25.32476562 16.640625 24.30078125 C16.75921875 23.54152344 16.8778125 22.78226563 17 22 C13.71000718 21.58168596 13.71000718 21.58168596 10 22 C-2.02837285 32.32606814 -7.72476696 50.91890462 -14 65 C-17.86790003 65 -19.01319413 64.72629646 -22.25 63 C-22.95640625 62.62875 -23.6628125 62.2575 -24.390625 61.875 C-24.92171875 61.58625 -25.4528125 61.2975 -26 61 C-25.71278076 60.33057373 -25.42556152 59.66114746 -25.12963867 58.97143555 C-23.80819209 55.87989489 -22.49781297 52.78377502 -21.1875 49.6875 C-20.73568359 48.63498047 -20.28386719 47.58246094 -19.81835938 46.49804688 C-15.23003611 35.61333839 -12.63648086 25.5976942 -11.8125 13.8125 C-11.73064453 12.76513672 -11.64878906 11.71777344 -11.56445312 10.63867188 C-11.36684446 8.09300733 -11.17883541 5.54704011 -11 3 C-9.54293274 2.49632243 -8.08429904 1.99717444 -6.625 1.5 C-5.81289063 1.2215625 -5.00078125 0.943125 -4.1640625 0.65625 C-2 0 -2 0 0 0 Z M-5 29 C-4 31 -4 31 -4 31 Z " fill="currentColor" transform="translate(270,41)"/>
    </g>
</svg>
