<?xml version="1.0" encoding="UTF-8"?>
<!-- Generator: https://ezgif.com/png-to-svg -->
<svg version="1.1" xmlns="http://www.w3.org/2000/svg">
    <g>
        <path d="M0 0 C1.68 -0.06 1.68 -0.06 3.4 -0.11 C7.3 0.4 8.88 1.54 11.62 4.31 C13.66 10.42 12.75 15.22 10.01 20.86 C3.84 31.81 -4.6 40.79 -15.38 47.31 C-16.69 46.65 -18.02 45.99 -19.38 45.31 C-19.38 44.65 -19.38 43.99 -19.38 43.31 C-20.03 42.98 -20.69 42.65 -21.38 42.31 C-20.22 38.86 -19.63 38.63 -16.69 36.75 C-11.22 32.79 -7.47 27.5 -5.75 20.93 C-5.36 18.55 -5.36 18.55 -5.38 15.31 C-6.5 13.99 -6.5 13.99 -9.38 13.94 C-16.39 14.05 -22.7 19.04 -27.74 23.57 C-32.3 28.44 -36.11 33.87 -36.62 40.62 C-36.34 44.8 -35.63 46.8 -33.38 50.31 C-30.94 51.86 -28.79 53.03 -26.19 54.19 C-25.49 54.52 -24.79 54.85 -24.06 55.2 C-21.84 56.25 -19.61 57.28 -17.38 58.31 C1.48 67.02 1.48 67.02 5.62 75.31 C6.41 75.3 7.19 75.29 8 75.28 C9.51 75.26 9.51 75.26 11.06 75.25 C12.07 75.24 13.08 75.23 14.12 75.21 C16.62 75.31 16.62 75.31 17.62 76.31 C17.67 78.65 17.67 80.98 17.62 83.31 C14 83.31 10.36 83.31 6.62 83.31 C6.58 84.39 6.54 85.46 6.5 86.56 C5.08 97.41 -1.83 105.88 -9.38 113.31 C-10.07 114.01 -10.77 114.71 -11.5 115.43 C-27.13 130.18 -49.61 140.19 -71.2 139.66 C-77.03 139.02 -80.62 136.98 -84.81 133 C-87.54 128.3 -87.85 124.19 -86.5 119 C-80.31 102.6 -60.39 93.11 -45.38 86.31 C-35.37 82.24 -24.95 79.44 -14.38 77.31 C-19.78 74.44 -25.2 71.94 -30.94 69.81 C-39.57 66.56 -46.63 63.69 -51.45 55.48 C-53.51 50.65 -53.09 44.86 -51.69 39.88 C-49.41 34.41 -46.1 29.88 -42.38 25.31 C-41.75 24.47 -41.75 24.47 -41.11 23.61 C-32.02 11.92 -15 0.33 0 0 Z M-66.38 110.31 C-68.76 114.52 -70.12 117.44 -69.38 122.31 C-66.85 125.43 -64.89 127.13 -60.86 127.62 C-46.22 128.22 -32.9 121.57 -21.88 112.18 C-14.4 105.12 -10 98.58 -9.42 88.18 C-9.4 87.57 -9.39 86.95 -9.38 86.31 C-29.07 85.15 -53.42 95.53 -66.38 110.31 Z " fill="currentColor" transform="translate(87.375,-0.3125)"/>
        <path d="M0 0 C0.9 0.01 1.8 0.02 2.73 0.03 C3.42 0.04 4.1 0.05 4.81 0.06 C11.38 13.94 12.83 29.73 13.13 44.91 C13.15 45.81 13.17 46.7 13.19 47.63 C13.26 50.46 13.32 53.29 13.38 56.12 C13.42 58.06 13.46 59.99 13.51 61.93 C13.61 66.64 13.71 71.35 13.81 76.06 C14.4 74.93 14.98 73.8 15.59 72.64 C23.64 57.2 23.64 57.2 28.31 50.69 C29 49.71 29 49.71 29.71 48.7 C33.81 42.93 38.17 37.41 42.81 32.06 C43.6 31.14 44.39 30.21 45.21 29.26 C53.74 19.55 64.18 9.97 75.81 4.06 C78.05 4.2 78.05 4.2 79.81 5.06 C81.62 7.44 81.62 7.44 82.81 10.06 C81.66 13.52 80.88 13.99 78 16.06 C50.32 36.97 30.75 66.48 15.73 97.31 C15.26 98.28 15.26 98.28 14.77 99.28 C13.93 101 13.11 102.74 12.29 104.47 C10.81 107.06 10.81 107.06 7.81 109.06 C5.07 109.03 2.53 108.51 -0.19 108.06 C-0.19 107.4 -0.19 106.74 -0.19 106.06 C-1.18 105.73 -2.17 105.4 -3.19 105.06 C-4.54 101.81 -4.15 98.73 -3.85 95.28 C-3.75 94.12 -3.66 92.96 -3.56 91.77 C-3.46 90.53 -3.36 89.28 -3.25 88 C-1.21 60.95 -0.65 33.68 -8.7 7.51 C-9.22 4.9 -9.26 3.49 -8.19 1.06 C-5.17 0.06 -3.15 -0.04 0 0 Z " fill="currentColor" transform="translate(311.1875,-0.0625)"/>
        <path d="M0 0 C0.66 0.66 1.32 1.32 2 2 C1.62 5.12 1.62 5.12 1 8 C-0.16 8.28 -1.32 8.56 -2.52 8.85 C-16.7 12.42 -31.07 17.8 -39.66 30.45 C-43.02 36.58 -44.25 41.57 -42.31 48.44 C-41.06 50.16 -41.06 50.16 -38.88 50.94 C-29.41 51.14 -22.12 44.12 -15.62 38.06 C-10.62 32.98 -6.89 27.15 -3.07 21.16 C-1 18 -1 18 1 16 C3.31 17.32 5.62 18.64 8 20 C6.93 23.42 5.72 26.71 4.27 29.99 C3.96 30.7 3.65 31.4 3.34 32.13 C2.7 33.58 2.05 35.02 1.39 36.46 C-0.95 41.88 -1.31 46.11 -1 52 C4 51.52 6.98 49.97 11 47 C14.88 48.75 14.88 48.75 16 51 C11.83 57.72 6.62 62.46 -1 65 C-5.14 65.39 -7.53 65.22 -11.31 63.44 C-14.67 60.39 -15.38 58.46 -16 54 C-15.12 50.56 -15.12 50.56 -14 48 C-17.51 49.97 -20.3 52.09 -23.19 54.88 C-30.3 61.33 -38.26 65.36 -47.98 65.22 C-53.05 64.67 -56.85 61.85 -60 58 C-61.82 48.23 -59.27 39.11 -54.01 30.89 C-41.06 12.88 -23.49 4.13 -2.07 0.07 C-1.05 0.03 -1.05 0.03 0 0 Z " fill="currentColor" transform="translate(226,42)"/>
        <path d="M0 0 C2.31 0.66 4.62 1.32 7 2 C8.28 4.95 7.98 6.05 6.83 9.12 C6.24 10.33 5.64 11.53 5.04 12.73 C4.72 13.37 4.41 14.01 4.09 14.67 C3.09 16.7 2.08 18.73 1.06 20.75 C0.38 22.13 -0.3 23.51 -0.97 24.89 C-2.64 28.26 -4.31 31.63 -6 35 C-5.34 34.67 -4.68 34.34 -4 34 C-1.86 33.9 0.29 33.87 2.44 33.88 C3.59 33.87 4.74 33.87 5.93 33.87 C9 34 9 34 12 35 C12 37.97 12 40.94 12 44 C11.17 43.99 10.33 43.98 9.47 43.96 C5.98 43.94 2.49 43.96 -1 44 C-2.35 43.97 -2.35 43.97 -3.73 43.94 C-6.05 44 -7.83 44.16 -10 45 C-12.12 47.88 -12.92 49.67 -14 53 C-14.21 53.6 -14.41 54.2 -14.62 54.82 C-19.28 67.1 -19.28 67.1 -19.31 79.88 C-17.73 82.44 -16.9 83.19 -14 84 C-8.78 83.77 -5.34 81.69 -1 79 C0.32 80.32 1.64 81.64 3 83 C1.63 88.64 -2.53 91.69 -7 95 C-12.6 98.21 -17.68 98.75 -24 98 C-27.85 96.74 -29.45 95.73 -31.88 92.5 C-35.98 79.73 -30.5 65.11 -25.73 53.14 C-24.84 50.9 -24.84 50.9 -25 48 C-26.75 48.31 -28.5 48.62 -30.25 48.94 C-31.22 49.11 -32.2 49.29 -33.2 49.46 C-35.5 49.9 -37.74 50.4 -40 51 C-40.33 48.36 -40.66 45.72 -41 43 C-33.99 39.58 -25.84 37 -18 37 C-17.76 36.2 -17.51 35.4 -17.26 34.57 C-15.72 30.19 -13.81 26.06 -11.81 21.88 C-11.42 21.04 -11.02 20.21 -10.61 19.35 C-7.41 12.68 -3.9 6.29 0 0 Z " fill="currentColor" transform="translate(151,8)"/>
        <path d="M0 0 C0.12 2.63 0.12 2.63 0 5 C-0.89 5.15 -1.79 5.29 -2.71 5.45 C-12.16 7.2 -20.82 9.53 -27 17.38 C-30.54 23.05 -31.6 29.38 -31 36 C-29.59 40.04 -28.35 43.28 -25 46 C-20.72 47.29 -16.95 47.29 -12.69 46 C-8.28 42.72 -6.05 38.4 -5 33 C-4.41 25.74 -5.21 19.72 -8 13 C-4.65 11.23 -1.79 10.41 2 10 C4 11 4 11 5.06 13.19 C7.93 21.8 8.21 32.36 4.88 40.88 C-0.73 50.22 -7.5 58.47 -18.31 61.69 C-25.23 62.49 -31.87 62.77 -38 59 C-43.07 54.38 -45.71 50.8 -46.24 43.93 C-46.52 30.49 -42.89 21.13 -34 11 C-25.38 2.48 -16.17 -1.05 -4.21 -2.12 C-2 -2 -2 -2 0 0 Z " fill="currentColor" transform="translate(400,46)"/>
        <path d="M0 0 C2.95 5.89 5.31 11.65 7 18 C10.84 18 11.86 16.83 14.88 14.5 C19.13 11.34 23.41 8.29 27.88 5.44 C28.92 4.76 29.97 4.07 31.05 3.37 C34.33 1.85 35.64 1.86 39 3 C39.5 4.98 39.5 4.98 40 7 C33.04 12.94 25.66 18 17.98 22.96 C16.84 23.7 16.84 23.7 15.68 24.46 C15 24.9 14.31 25.34 13.61 25.8 C11.85 26.92 11.85 26.92 11 29 C12.04 31.38 13.14 33.6 14.38 35.88 C14.73 36.54 15.09 37.21 15.46 37.9 C18.57 43.54 22.21 48.58 26.21 53.61 C28 56 28 56 29 59 C29.66 59 30.32 59 31 59 C30.81 60.81 30.81 60.81 30 63 C27.26 65.21 25.86 66.08 22.31 65.75 C20 65 20 65 18 64 C18 63.34 18 62.68 18 62 C17.34 62 16.68 62 16 62 C9.18 55.05 4.6 46.48 0 38 C-4.43 39.64 -7.1 43.03 -10.19 46.44 C-11.04 47.37 -11.04 47.37 -11.91 48.32 C-16.82 53.71 -21.48 59.28 -26 65 C-30.88 62.25 -30.88 62.25 -32 60 C-27.67 52.97 -22.6 47.03 -17 41 C-15.35 39.17 -13.71 37.34 -12.06 35.5 C-10.08 33.29 -8.1 31.1 -6 29 C-6.44 25.09 -7.78 21.42 -9 17.69 C-10.55 12.74 -11.59 8.16 -12 3 C-8.04 2.01 -4.08 1.02 0 0 Z " fill="currentColor" transform="translate(441,43)"/>
        <path d="M0 0 C3.99 5.98 5.66 12.02 7 19 C13.57 15.62 19.67 11.63 25.77 7.48 C33.85 2 33.85 2 38 2 C40 5 40 5 40 8 C38.41 9.42 38.41 9.42 36.2 10.89 C35.39 11.43 34.58 11.97 33.75 12.53 C32.88 13.1 32.02 13.67 31.12 14.25 C29.38 15.42 27.64 16.58 25.89 17.75 C24.63 18.59 24.63 18.59 23.34 19.44 C20.47 21.36 17.63 23.32 14.81 25.31 C14.06 25.84 13.3 26.38 12.52 26.93 C12.02 27.28 11.52 27.63 11 28 C15.84 38.54 21.43 49.53 29.8 57.77 C31 59 31 59 31 61 C29.55 63.9 27.94 64.73 25 66 C19.84 65.52 17.65 63.28 14.19 59.66 C8.69 52.99 4.42 45.4 0 38 C-8.26 44.89 -15.36 52.22 -22.02 60.68 C-24 63 -24 63 -27 65 C-28.65 63.68 -30.3 62.36 -32 61 C-29.31 56.02 -26.39 51.77 -22.69 47.5 C-22.2 46.94 -21.72 46.37 -21.22 45.79 C-18.6 42.75 -15.92 39.82 -13.06 37 C-12.53 36.47 -12 35.94 -11.45 35.4 C-10.13 34.12 -8.78 32.87 -7.44 31.62 C-5.62 28.31 -6.15 26.37 -7.14 22.81 C-7.43 21.88 -7.71 20.96 -8 20 C-8.55 18.05 -9.1 16.11 -9.63 14.16 C-10 12.82 -10.38 11.48 -10.77 10.14 C-11.68 6.86 -12.1 5.31 -11 2 C-9.39 1.78 -9.39 1.78 -7.75 1.56 C-5.08 1.16 -2.59 0.72 0 0 Z " fill="currentColor" transform="translate(515,43)"/>
        <path d="M0 0 C-0.09 1.07 -0.09 1.07 -0.18 2.17 C-0.46 5.41 -0.73 8.64 -1 11.88 C-1.1 13 -1.19 14.13 -1.29 15.29 C-1.38 16.37 -1.47 17.45 -1.56 18.55 C-1.65 19.55 -1.73 20.54 -1.82 21.57 C-2.03 23.93 -2.03 23.93 -2 26 C-1.26 24.93 -1.26 24.93 -0.5 23.84 C10.21 8.74 10.21 8.74 17 6 C21.27 5.35 24.82 5.19 28.44 7.69 C31.2 11.77 32.34 14.32 31.5 19.25 C29.72 26.15 25.87 31.96 20 36 C17.98 34.86 17.98 34.86 16 33 C15.83 30.3 15.83 30.3 16.25 27.31 C16.38 26.32 16.51 25.32 16.64 24.3 C16.76 23.54 16.88 22.78 17 22 C13.71 21.58 13.71 21.58 10 22 C-2.03 32.33 -7.72 50.92 -14 65 C-17.87 65 -19.01 64.73 -22.25 63 C-22.96 62.63 -23.66 62.26 -24.39 61.88 C-24.92 61.59 -25.45 61.3 -26 61 C-25.71 60.33 -25.43 59.66 -25.13 58.97 C-23.81 55.88 -22.5 52.78 -21.19 49.69 C-20.74 48.63 -20.28 47.58 -19.82 46.5 C-15.23 35.61 -12.64 25.6 -11.81 13.81 C-11.73 12.77 -11.65 11.72 -11.56 10.64 C-11.37 8.09 -11.18 5.55 -11 3 C-9.54 2.5 -8.08 2 -6.62 1.5 C-5.81 1.22 -5 0.94 -4.16 0.66 C-2 0 -2 0 0 0 Z M-5 29 C-4 31 -4 31 -4 31 Z " fill="currentColor" transform="translate(270,41)"/>
    </g>
</svg>
